# xmcd CD database file
#
# Track frame offsets:
#	150
#	21107
#	47702
#	65696
#	81480
#	101418
#
# Disc length: 1571 seconds
#
# Revision: 0
# Processed by: cddbd v1.5.2PL0 Copyright (c) Steve Scherf et al.
# Submitted via: CDex 1.70beta2
#
DISCID=4a062106
DTITLE=The Thomas Oliver Band - Every Penny
DYEAR=1900
DGENRE=Blues
TTITLE0=Nothing Left
TTITLE1=What Can I Say
TTITLE2=Train To Work
TTITLE3=I Wish I Were The Rain
TTITLE4=In My Bones
TTITLE5=A Letter
EXTD=
EXTT0=
EXTT1=
EXTT2=
EXTT3=
EXTT4=
EXTT5=
PLAYORDER=
